<svg width="33" height="36" viewBox="0 0 33 36" fill="none" xmlns="http://www.w3.org/2000/svg">
<g id="&#240;&#159;&#166;&#134; icon &#34;random&#34;">
<path id="Vector" d="M24.75 0V4.5H22.6875C21.2437 4.5 20.3775 4.95 19.47 6.21L13.6537 14.22L7.3425 6.21C6.435 5.04 5.5275 4.5 4.125 4.5H0V9H4.125C3.91875 9 4.16625 9.18 4.24875 9.135L10.9725 17.73L4.125 27H0V31.5H4.125C5.56875 31.5 6.435 31.05 7.3425 29.79L13.6537 21.195L20.5012 29.79C21.4087 30.96 22.3162 31.5 23.7188 31.5H24.75V36L33 29.25L24.75 22.5V27H23.8425C23.8013 26.955 23.6362 26.82 23.595 26.865L16.3762 17.595L22.6875 9H24.75V13.5L33 6.75L24.75 0Z" fill="black"/>
</g>
</svg>
